<?xml version="1.0" encoding="UTF-8"?>
<svg id="Layer_1" data-name="Layer 1" xmlns="http://www.w3.org/2000/svg" viewBox="0 0 825 760">
  <defs>
    <style>
      .cls-1 {
        fill: #fff;
      }

      .cls-2 {
        fill: #111;
      }
    </style>
  </defs>
  <rect class="cls-2" width="829.07" height="760"/>
  <g>
    <g>
      <path class="cls-1" d="M209.42,565.46h-22.23c-.22-10.09-.11-20.12-.15-30.14-.04-10.03,0-20.06,0-30.08-.16-.04-.33-.08-.49-.11-.48.74-.98,1.46-1.43,2.22-8.94,15.02-17.91,30.02-26.78,45.08-1.01,1.72-2.08,2.57-4.12,2.37-1.81-.18-3.67-.15-5.49,0-1.79.14-2.84-.48-3.79-2.05-7.98-13.27-16.05-26.48-24.09-39.71-1.33-2.19-2.68-4.37-4.24-6.91-.67,2.48-.28,4.61-.35,6.69-.07,2.16-.02,4.33-.02,6.49v46.08h-22.02v-102.03c.68-.05,1.4-.16,2.11-.16,5-.01,10,.08,14.99-.06,1.77-.05,2.67.64,3.53,2.07,11.78,19.62,23.62,39.21,35.44,58.81.47.77.96,1.53,1.66,2.63.6-.96,1.09-1.68,1.54-2.44,11.64-19.61,23.29-39.21,34.86-58.87.98-1.67,2.04-2.26,3.94-2.21,4.66.14,9.33.05,13.99.05.81,0,1.63,0,2.77,0,.13,34.17.26,68.09.39,102.28Z"/>
      <path class="cls-1" d="M427.12,565.38v-102.05c.83-.05,1.55-.14,2.27-.14,14.65,0,29.31-.05,43.96,0,10.71.04,21.05,1.9,30.58,7.04,15.65,8.44,24.32,21.48,25.74,39.27.67,8.33-.1,16.49-3.17,24.3-5.36,13.59-15.34,22.49-28.8,27.7-6.42,2.48-13.14,3.86-19.99,3.93-16.48.18-32.97.09-49.46.1-.32,0-.64-.08-1.13-.14ZM450.82,482.76v63.21c.66.05,1.15.12,1.64.12,6.99,0,13.99.04,20.98-.04,2.24-.02,4.5-.19,6.7-.57,11.57-2.03,19.83-8.24,23.92-19.44,2.01-5.5,2.33-11.24,1.5-17-1.37-9.55-6-16.99-14.49-21.84-5.64-3.23-11.8-4.45-18.21-4.54-6.66-.08-13.32-.02-19.98-.02-.65,0-1.29.07-2.07.12Z"/>
      <path class="cls-1" d="M318.26,565.53c-8.53,0-16.44-.04-24.34.03-1.42.01-1.84-.93-2.43-1.79-5.58-8.08-11.21-16.13-16.67-24.29-1.26-1.88-2.61-2.56-4.84-2.51-6.07.16-12.14.05-18.56.05-.11,3.24-.04,6.37-.05,9.49-.01,3.08,0,6.16,0,9.24v9.6h-23.29c-.48-1.86-.63-98.55-.14-101.97.57-.07,1.2-.21,1.82-.21,14.32,0,28.64-.06,42.96.03,8.22.05,16.25,1.32,23.76,4.92,12.47,5.98,19.02,15.95,19.86,29.7.27,4.34-.08,8.65-1.21,12.87-2.55,9.49-8.43,16.26-17.03,20.79-.73.39-1.46.78-2.19,1.17-.06.03-.08.13-.23.39,7.38,10.61,14.83,21.3,22.6,32.46ZM251.45,517.99c.55.08.87.17,1.19.17,7.16-.03,14.32.02,21.47-.15,2.22-.05,4.48-.52,6.61-1.15,6.52-1.95,10.38-6.4,11.43-13.12.3-1.95.33-4,.11-5.97-.75-6.75-4.31-11.49-10.81-13.6-2.81-.91-5.85-1.42-8.8-1.53-6.57-.23-13.15-.09-19.73-.09-.47,0-.94.13-1.48.2v35.24Z"/>
      <path class="cls-1" d="M543.93,463.3h23.63v3.01c0,17.73,0,35.47,0,53.2,0,4.18.33,8.31,1.42,12.36,2.38,8.79,8.42,14.06,17.5,15.05,3.98.43,7.98.35,11.88-.84,6.24-1.9,10.52-5.85,12.72-12.02,1.21-3.4,1.86-6.92,1.95-10.51.12-4.49.11-8.99.11-13.49.01-14.57,0-29.14,0-43.71,0-.91,0-1.82,0-2.67,1.88-.61,18.37-.81,23.18-.31.07.58.22,1.2.22,1.83,0,19.23.02,38.46-.04,57.7-.02,5.69-.9,11.28-2.72,16.69-4.19,12.44-12.53,20.89-24.99,24.93-12.47,4.04-25.15,4.08-37.56-.13-14.69-4.99-23.17-15.68-26.1-30.76-.8-4.14-1.14-8.42-1.17-12.65-.12-18.32-.05-36.63-.05-54.95v-2.72Z"/>
      <path class="cls-1" d="M656.18,463.31h23.28c.33,5.5.1,10.95.14,16.4.04,5.49,0,10.99,0,16.48v49.99c3.6.02,6.98.05,10.35.06,3.41.01,6.83,0,10.24,0h20.23c3.4,0,6.8,0,10.36,0v18.87c-1.68.52-69.52.76-74.62.22v-102.03Z"/>
      <path class="cls-1" d="M405.5,565.43h-23.29v-102.07h23.29v102.07Z"/>
      <path class="cls-1" d="M359.58,565.33h-23.29v-102.07h23.29v102.07Z"/>
    </g>
    <g>
      <path class="cls-1" d="M449.65,333.39c.62-1.42,1.04-2.3,1.4-3.21,13.86-34.68,27.71-69.37,41.57-104.06.67-1.68,1.16-3.52,3.58-4.04,1.21-.26,2.52-.11,3.48.67,1.08.88,1.5,2.19,2,3.42,21.64,53.52,43.28,107.05,64.91,160.58,6.05,14.96,12.1,29.92,18.14,44.89.02.05.04.09.06.14.56,1.39-.48,2.91-1.98,2.91,0,0-.02,0-.03,0-112.75,0-225.5,0-338.24,0-4.12,0-5.42-1.99-3.82-5.96,7.26-18.06,14.54-36.12,21.81-54.17,30.06-74.62,60.12-149.24,90.17-223.85,2.39-5.94,4.78-11.89,7.17-17.83.28-.69.55-1.4.89-2.06.76-1.46,2.01-2.22,3.63-2.23,1.73,0,3.04.78,3.79,2.37.39.83.7,1.69,1.04,2.54,26.47,65.84,52.93,131.68,79.4,197.52.24.61.52,1.21,1.01,2.36ZM419.39,409.19c.28-.6.51-1.04.7-1.5,5-12.52,9.97-25.04,15.03-37.53.54-1.34.27-2.37-.2-3.55-23.09-57.43-46.17-114.86-69.25-172.28-.34-.84-.71-1.65-1.11-2.57-1.55,2.4-87.32,215.6-87.47,217.43h142.3Z"/>
      <path class="cls-1" d="M522.18,168.8c.02,13.9-11.15,25.02-25.12,25-13.83-.02-24.93-11.11-24.94-24.91,0-13.89,11.19-25.07,25.11-25.05,13.76.02,24.93,11.2,24.95,24.97Z"/>
    </g>
    <g>
      <path class="cls-1" d="M431.27,612.9c0,10.65-8.12,18.5-19.07,18.46-10.98-.04-18.99-7.89-18.96-18.57.03-10.59,8.18-18.37,19.2-18.32,10.84.05,18.84,7.88,18.83,18.43ZM412.17,597.92c-8.79.03-15.21,6.46-15.13,15.13.08,8.65,6.61,14.96,15.41,14.89,8.62-.07,14.99-6.46,15.01-15.04.01-8.66-6.47-15.01-15.29-14.98Z"/>
      <path class="cls-1" d="M379.2,618.71c2.89,4.07,5.65,7.98,8.52,12.03-2.59.6-4.3.26-5.68-2.03-1.93-3.19-4.27-6.14-6.39-9.11h-12.76v11.2h-3.71v-35.79c.63-.08,1.26-.22,1.89-.22,3.83-.02,7.66-.02,11.48,0,2.68.01,5.31.31,7.8,1.42,4.36,1.95,6.7,5.29,6.96,10.07.28,5.02-1.53,8.93-6.05,11.4-.58.32-1.19.59-2.07,1.03ZM362.95,616.42c4.31-.13,8.36-.25,12.41-.39.57-.02,1.15-.17,1.71-.32,4.21-1.17,6.56-4.28,6.51-8.61-.04-4.4-2.58-7.65-6.9-8.55-4.5-.94-9.05-.43-13.73-.44v18.31Z"/>
      <path class="cls-1" d="M348.34,599.86c-.82.77-1.48,1.39-2.24,2.1-.37-.24-.72-.42-1.02-.67-4.62-3.76-9.88-4.21-15.32-2.57-7.06,2.12-11.01,8.75-10.07,16.35.88,7.1,6.62,12.34,14.08,12.82,2.96.19,5.79-.32,8.52-1.48,1.53-.65,2.31-1.56,2.22-3.4-.17-3.23-.05-6.47-.05-9.9h3.61c.04.8.12,1.53.12,2.26.01,2.66-.27,5.36.08,7.98.41,3.1-1.11,4.56-3.58,5.72-5.88,2.76-11.89,3.13-17.9.7-7.56-3.06-11.67-10.33-10.97-18.89.63-7.7,6.31-14.14,14.07-15.88,4.41-.99,8.76-.78,12.99.91,2.03.81,3.86,1.93,5.47,3.92Z"/>
      <path class="cls-1" d="M481.29,594.93c.6-.05,1.24-.14,1.88-.14,3.74-.01,7.49-.02,11.23,0,2.85.02,5.64.34,8.25,1.6,4.31,2.09,6.47,5.53,6.61,10.31.15,4.94-1.76,8.73-6.21,11.05-2.32,1.21-4.83,1.76-7.45,1.76-3.48,0-6.97,0-10.75,0-.3,3.84.03,7.55-.21,11.34h-3.29c-.52-1.98-.59-33.29-.05-35.93ZM484.86,616.19c4.85-.13,9.58.55,14.24-.59,3.25-.79,5.43-2.81,6.12-6.19,1.19-5.78-1.68-10.18-7.56-10.96-3.69-.49-7.47-.31-11.21-.39-.54-.01-1.09.17-1.59.25v17.88Z"/>
      <path class="cls-1" d="M439.62,594.93h3.77c0,1.02,0,1.91,0,2.8,0,5.66-.06,11.32.03,16.98.04,2.06.26,4.16.75,6.16.9,3.63,3.37,5.86,7.02,6.64,1.37.29,2.81.43,4.2.38,5.55-.24,8.93-3.24,9.89-8.72.23-1.3.33-2.64.34-3.97.04-5.83.02-11.65.02-17.48,0-.89,0-1.78,0-2.79h3.53c.06.78.15,1.42.15,2.07,0,6.24.06,12.49-.03,18.73-.03,1.98-.23,4.01-.73,5.92-1.26,4.71-4.36,7.76-9.08,9.06-3.28.9-6.59.9-9.87.04-5.95-1.57-9.55-6.18-9.89-12.87-.19-3.74-.09-7.49-.1-11.23-.01-3.82,0-7.63,0-11.71Z"/>
    </g>
  </g>
</svg>